<svg xmlns="http://www.w3.org/2000/svg" viewBox="0 0 1600 820" width="1600" height="820" font-family="Inter, Segoe UI, Arial, sans-serif">
<defs><marker id="am" viewBox="0 0 10 10" refX="9" refY="5" markerWidth="7" markerHeight="7" orient="auto"><path d="M0,0 L10,5 L0,10z" fill="#475569"/></marker><marker id="amB" viewBox="0 0 10 10" refX="9" refY="5" markerWidth="7" markerHeight="7" orient="auto"><path d="M0,0 L10,5 L0,10z" fill="#0A84FF"/></marker></defs>
<rect width="1600" height="820" fill="#FFFFFF"/>
<text x="40" y="56" font-size="16" font-weight="700" letter-spacing="2" fill="#64748B">SYSTEM ARCHITECTURE</text>
<text x="40" y="98" font-size="34" font-weight="800" fill="#0F172A">One REST backend. Two clients. Managed data plane.</text>
<rect x="40" y="140" width="1520" height="150" rx="18" ry="18" fill="none" stroke="#CBD5E1" stroke-dasharray="5 5" stroke-width="1.2"/>
<text x="60" y="166" font-size="12" font-weight="800" letter-spacing="1.6" fill="#64748B">CLIENTS</text>
<rect x="80" y="170" width="680" height="100" rx="14" ry="14" fill="#F1F5F9" stroke="#0A84FF" stroke-width="1.4"/>
<rect x="80" y="170" width="6" height="100" rx="3" ry="3" fill="#0A84FF"/>
<text x="102" y="204" font-size="18" font-weight="700" fill="#0F172A">Web Frontend</text>
<text x="102" y="230" font-size="14" font-weight="500" fill="#475569">Static SPA on Vercel · tasktrail.site</text>
<rect x="820" y="170" width="700" height="100" rx="14" ry="14" fill="#F1F5F9" stroke="#0A84FF" stroke-width="1.4"/>
<rect x="820" y="170" width="6" height="100" rx="3" ry="3" fill="#0A84FF"/>
<text x="842" y="204" font-size="18" font-weight="700" fill="#0F172A">Mobile App</text>
<text x="842" y="230" font-size="14" font-weight="500" fill="#475569">Flutter Android · flutter_secure_storage · dio</text>
<rect x="40" y="330" width="1520" height="170" rx="18" ry="18" fill="none" stroke="#CBD5E1" stroke-dasharray="5 5" stroke-width="1.2"/>
<text x="60" y="356" font-size="12" font-weight="800" letter-spacing="1.6" fill="#64748B">APPLICATION TIER  ·  Oracle Cloud Infrastructure</text>
<rect x="80" y="370" width="300" height="110" rx="14" ry="14" fill="#F1F5F9" stroke="#475569" stroke-width="1.4"/>
<rect x="80" y="370" width="6" height="110" rx="3" ry="3" fill="#475569"/>
<text x="102" y="404" font-size="18" font-weight="700" fill="#0F172A">Caddy</text>
<text x="102" y="430" font-size="14" font-weight="500" fill="#475569">HTTPS · TLS · routing</text>
<rect x="410" y="370" width="560" height="110" rx="14" ry="14" fill="#F1F5F9" stroke="#0A84FF" stroke-width="1.4"/>
<rect x="410" y="370" width="6" height="110" rx="3" ry="3" fill="#0A84FF"/>
<text x="432" y="404" font-size="18" font-weight="700" fill="#0F172A">TaskTrail API</text>
<text x="432" y="430" font-size="14" font-weight="500" fill="#475569">Node.js 22 · Express 5 · Zod · Docker</text>
<rect x="1000" y="370" width="250" height="110" rx="14" ry="14" fill="#F1F5F9" stroke="#475569" stroke-width="1.4"/>
<rect x="1000" y="370" width="6" height="110" rx="3" ry="3" fill="#475569"/>
<text x="1022" y="404" font-size="18" font-weight="700" fill="#0F172A">/health</text>
<text x="1022" y="430" font-size="14" font-weight="500" fill="#475569">Public liveness probe</text>
<rect x="1280" y="370" width="240" height="110" rx="14" ry="14" fill="#F1F5F9" stroke="#475569" stroke-width="1.4"/>
<rect x="1280" y="370" width="6" height="110" rx="3" ry="3" fill="#475569"/>
<text x="1302" y="404" font-size="18" font-weight="700" fill="#0F172A">JSON envelope</text>
<text x="1302" y="430" font-size="14" font-weight="500" fill="#475569">{ ok, data, error }</text>
<rect x="40" y="540" width="1520" height="170" rx="18" ry="18" fill="none" stroke="#CBD5E1" stroke-dasharray="5 5" stroke-width="1.2"/>
<text x="60" y="566" font-size="12" font-weight="800" letter-spacing="1.6" fill="#64748B">MANAGED DATA PLANE</text>
<rect x="80" y="580" width="360" height="110" rx="14" ry="14" fill="#F1F5F9" stroke="#059669" stroke-width="1.4"/>
<rect x="80" y="580" width="6" height="110" rx="3" ry="3" fill="#059669"/>
<text x="102" y="614" font-size="18" font-weight="700" fill="#0F172A">Supabase Auth</text>
<text x="102" y="640" font-size="14" font-weight="500" fill="#475569">Email + password · JWT · confirm</text>
<rect x="470" y="580" width="430" height="110" rx="14" ry="14" fill="#F1F5F9" stroke="#059669" stroke-width="1.4"/>
<rect x="470" y="580" width="6" height="110" rx="3" ry="3" fill="#059669"/>
<text x="492" y="614" font-size="18" font-weight="700" fill="#0F172A">Supabase PostgreSQL</text>
<text x="492" y="640" font-size="14" font-weight="500" fill="#475569">Users · teams · tasks · assignments</text>
<rect x="930" y="580" width="300" height="110" rx="14" ry="14" fill="#F1F5F9" stroke="#059669" stroke-width="1.4"/>
<rect x="930" y="580" width="6" height="110" rx="3" ry="3" fill="#059669"/>
<text x="952" y="614" font-size="18" font-weight="700" fill="#0F172A">Resend SMTP</text>
<text x="952" y="640" font-size="14" font-weight="500" fill="#475569">Verification email</text>
<rect x="1260" y="580" width="260" height="110" rx="14" ry="14" fill="#F1F5F9" stroke="#475569" stroke-width="1.4"/>
<rect x="1260" y="580" width="6" height="110" rx="3" ry="3" fill="#475569"/>
<text x="1282" y="614" font-size="18" font-weight="700" fill="#0F172A">GitHub Actions</text>
<text x="1282" y="640" font-size="14" font-weight="500" fill="#475569">CI/CD → GHCR</text>
<line x1="420" y1="270" x2="690" y2="370" stroke="#0A84FF" stroke-width="2" marker-end="url(#amB)"/>
<line x1="1170" y1="270" x2="690" y2="370" stroke="#0A84FF" stroke-width="2" marker-end="url(#amB)"/>
<line x1="690" y1="480" x2="260" y2="580" stroke="#475569" stroke-width="1.8" marker-end="url(#am)"/>
<line x1="690" y1="480" x2="685" y2="580" stroke="#475569" stroke-width="1.8" marker-end="url(#am)"/>
<line x1="690" y1="480" x2="1080" y2="580" stroke="#475569" stroke-width="1.8" marker-end="url(#am)"/>
<line x1="380" y1="425" x2="410" y2="425" stroke="#475569" stroke-width="1.6" marker-end="url(#am)"/>
<rect x="40" y="730" width="1520" height="56" rx="12" fill="#EFF6FF" stroke="#0A84FF" stroke-width="1.2"/>
<text x="80" y="765" font-size="14" font-weight="700" fill="#0F172A">git push</text>
<text x="163.6" y="765" font-size="14" font-weight="700" fill="#0A84FF">→</text>
<text x="191.6" y="765" font-size="14" font-weight="700" fill="#0F172A">GitHub Actions</text>
<text x="324.4" y="765" font-size="14" font-weight="700" fill="#0A84FF">→</text>
<text x="352.4" y="765" font-size="14" font-weight="700" fill="#0F172A">GHCR</text>
<text x="403.2" y="765" font-size="14" font-weight="700" fill="#0A84FF">→</text>
<text x="431.2" y="765" font-size="14" font-weight="700" fill="#0F172A">SSH → OCI</text>
<text x="523.0" y="765" font-size="14" font-weight="700" fill="#0A84FF">→</text>
<text x="551.0" y="765" font-size="14" font-weight="700" fill="#0F172A">docker restart</text>
<text x="683.8" y="765" font-size="14" font-weight="700" fill="#0A84FF">→</text>
<text x="711.8" y="765" font-size="14" font-weight="700" fill="#0F172A">/health probe</text>
<text x="80" y="782" font-size="11" font-weight="700" letter-spacing="1.8" fill="#64748B">CI / CD</text>
</svg>