<svg xmlns="http://www.w3.org/2000/svg" viewBox="0 0 1600 420" width="1600" height="420" role="img" aria-label="TaskTrail">
<rect width="1600" height="420" fill="#0B1220"/>
<rect x="0" y="0" width="8" height="420" fill="#0A84FF"/>
<g opacity="0.55"><circle cx="760" cy="40" r="1.1" fill="#172036"/>
<circle cx="760" cy="72" r="1.1" fill="#172036"/>
<circle cx="760" cy="104" r="1.1" fill="#172036"/>
<circle cx="760" cy="136" r="1.1" fill="#172036"/>
<circle cx="760" cy="168" r="1.1" fill="#172036"/>
<circle cx="760" cy="200" r="1.1" fill="#172036"/>
<circle cx="760" cy="232" r="1.1" fill="#172036"/>
<circle cx="760" cy="264" r="1.1" fill="#172036"/>
<circle cx="760" cy="296" r="1.1" fill="#172036"/>
<circle cx="760" cy="328" r="1.1" fill="#172036"/>
<circle cx="760" cy="360" r="1.1" fill="#172036"/>
<circle cx="792" cy="40" r="1.1" fill="#172036"/>
<circle cx="792" cy="72" r="1.1" fill="#172036"/>
<circle cx="792" cy="104" r="1.1" fill="#172036"/>
<circle cx="792" cy="136" r="1.1" fill="#172036"/>
<circle cx="792" cy="168" r="1.1" fill="#172036"/>
<circle cx="792" cy="200" r="1.1" fill="#172036"/>
<circle cx="792" cy="232" r="1.1" fill="#172036"/>
<circle cx="792" cy="264" r="1.1" fill="#172036"/>
<circle cx="792" cy="296" r="1.1" fill="#172036"/>
<circle cx="792" cy="328" r="1.1" fill="#172036"/>
<circle cx="792" cy="360" r="1.1" fill="#172036"/>
<circle cx="824" cy="40" r="1.1" fill="#172036"/>
<circle cx="824" cy="72" r="1.1" fill="#172036"/>
<circle cx="824" cy="104" r="1.1" fill="#172036"/>
<circle cx="824" cy="136" r="1.1" fill="#172036"/>
<circle cx="824" cy="168" r="1.1" fill="#172036"/>
<circle cx="824" cy="200" r="1.1" fill="#172036"/>
<circle cx="824" cy="232" r="1.1" fill="#172036"/>
<circle cx="824" cy="264" r="1.1" fill="#172036"/>
<circle cx="824" cy="296" r="1.1" fill="#172036"/>
<circle cx="824" cy="328" r="1.1" fill="#172036"/>
<circle cx="824" cy="360" r="1.1" fill="#172036"/>
<circle cx="856" cy="40" r="1.1" fill="#172036"/>
<circle cx="856" cy="72" r="1.1" fill="#172036"/>
<circle cx="856" cy="104" r="1.1" fill="#172036"/>
<circle cx="856" cy="136" r="1.1" fill="#172036"/>
<circle cx="856" cy="168" r="1.1" fill="#172036"/>
<circle cx="856" cy="200" r="1.1" fill="#172036"/>
<circle cx="856" cy="232" r="1.1" fill="#172036"/>
<circle cx="856" cy="264" r="1.1" fill="#172036"/>
<circle cx="856" cy="296" r="1.1" fill="#172036"/>
<circle cx="856" cy="328" r="1.1" fill="#172036"/>
<circle cx="856" cy="360" r="1.1" fill="#172036"/>
<circle cx="888" cy="40" r="1.1" fill="#172036"/>
<circle cx="888" cy="72" r="1.1" fill="#172036"/>
<circle cx="888" cy="104" r="1.1" fill="#172036"/>
<circle cx="888" cy="136" r="1.1" fill="#172036"/>
<circle cx="888" cy="168" r="1.1" fill="#172036"/>
<circle cx="888" cy="200" r="1.1" fill="#172036"/>
<circle cx="888" cy="232" r="1.1" fill="#172036"/>
<circle cx="888" cy="264" r="1.1" fill="#172036"/>
<circle cx="888" cy="296" r="1.1" fill="#172036"/>
<circle cx="888" cy="328" r="1.1" fill="#172036"/>
<circle cx="888" cy="360" r="1.1" fill="#172036"/>
<circle cx="920" cy="40" r="1.1" fill="#172036"/>
<circle cx="920" cy="72" r="1.1" fill="#172036"/>
<circle cx="920" cy="104" r="1.1" fill="#172036"/>
<circle cx="920" cy="136" r="1.1" fill="#172036"/>
<circle cx="920" cy="168" r="1.1" fill="#172036"/>
<circle cx="920" cy="200" r="1.1" fill="#172036"/>
<circle cx="920" cy="232" r="1.1" fill="#172036"/>
<circle cx="920" cy="264" r="1.1" fill="#172036"/>
<circle cx="920" cy="296" r="1.1" fill="#172036"/>
<circle cx="920" cy="328" r="1.1" fill="#172036"/>
<circle cx="920" cy="360" r="1.1" fill="#172036"/>
<circle cx="952" cy="40" r="1.1" fill="#172036"/>
<circle cx="952" cy="72" r="1.1" fill="#172036"/>
<circle cx="952" cy="104" r="1.1" fill="#172036"/>
<circle cx="952" cy="136" r="1.1" fill="#172036"/>
<circle cx="952" cy="168" r="1.1" fill="#172036"/>
<circle cx="952" cy="200" r="1.1" fill="#172036"/>
<circle cx="952" cy="232" r="1.1" fill="#172036"/>
<circle cx="952" cy="264" r="1.1" fill="#172036"/>
<circle cx="952" cy="296" r="1.1" fill="#172036"/>
<circle cx="952" cy="328" r="1.1" fill="#172036"/>
<circle cx="952" cy="360" r="1.1" fill="#172036"/>
<circle cx="984" cy="40" r="1.1" fill="#172036"/>
<circle cx="984" cy="72" r="1.1" fill="#172036"/>
<circle cx="984" cy="104" r="1.1" fill="#172036"/>
<circle cx="984" cy="136" r="1.1" fill="#172036"/>
<circle cx="984" cy="168" r="1.1" fill="#172036"/>
<circle cx="984" cy="200" r="1.1" fill="#172036"/>
<circle cx="984" cy="232" r="1.1" fill="#172036"/>
<circle cx="984" cy="264" r="1.1" fill="#172036"/>
<circle cx="984" cy="296" r="1.1" fill="#172036"/>
<circle cx="984" cy="328" r="1.1" fill="#172036"/>
<circle cx="984" cy="360" r="1.1" fill="#172036"/>
<circle cx="1016" cy="40" r="1.1" fill="#172036"/>
<circle cx="1016" cy="72" r="1.1" fill="#172036"/>
<circle cx="1016" cy="104" r="1.1" fill="#172036"/>
<circle cx="1016" cy="136" r="1.1" fill="#172036"/>
<circle cx="1016" cy="168" r="1.1" fill="#172036"/>
<circle cx="1016" cy="200" r="1.1" fill="#172036"/>
<circle cx="1016" cy="232" r="1.1" fill="#172036"/>
<circle cx="1016" cy="264" r="1.1" fill="#172036"/>
<circle cx="1016" cy="296" r="1.1" fill="#172036"/>
<circle cx="1016" cy="328" r="1.1" fill="#172036"/>
<circle cx="1016" cy="360" r="1.1" fill="#172036"/>
<circle cx="1048" cy="40" r="1.1" fill="#172036"/>
<circle cx="1048" cy="72" r="1.1" fill="#172036"/>
<circle cx="1048" cy="104" r="1.1" fill="#172036"/>
<circle cx="1048" cy="136" r="1.1" fill="#172036"/>
<circle cx="1048" cy="168" r="1.1" fill="#172036"/>
<circle cx="1048" cy="200" r="1.1" fill="#172036"/>
<circle cx="1048" cy="232" r="1.1" fill="#172036"/>
<circle cx="1048" cy="264" r="1.1" fill="#172036"/>
<circle cx="1048" cy="296" r="1.1" fill="#172036"/>
<circle cx="1048" cy="328" r="1.1" fill="#172036"/>
<circle cx="1048" cy="360" r="1.1" fill="#172036"/>
<circle cx="1080" cy="40" r="1.1" fill="#172036"/>
<circle cx="1080" cy="72" r="1.1" fill="#172036"/>
<circle cx="1080" cy="104" r="1.1" fill="#172036"/>
<circle cx="1080" cy="136" r="1.1" fill="#172036"/>
<circle cx="1080" cy="168" r="1.1" fill="#172036"/>
<circle cx="1080" cy="200" r="1.1" fill="#172036"/>
<circle cx="1080" cy="232" r="1.1" fill="#172036"/>
<circle cx="1080" cy="264" r="1.1" fill="#172036"/>
<circle cx="1080" cy="296" r="1.1" fill="#172036"/>
<circle cx="1080" cy="328" r="1.1" fill="#172036"/>
<circle cx="1080" cy="360" r="1.1" fill="#172036"/>
<circle cx="1112" cy="40" r="1.1" fill="#172036"/>
<circle cx="1112" cy="72" r="1.1" fill="#172036"/>
<circle cx="1112" cy="104" r="1.1" fill="#172036"/>
<circle cx="1112" cy="136" r="1.1" fill="#172036"/>
<circle cx="1112" cy="168" r="1.1" fill="#172036"/>
<circle cx="1112" cy="200" r="1.1" fill="#172036"/>
<circle cx="1112" cy="232" r="1.1" fill="#172036"/>
<circle cx="1112" cy="264" r="1.1" fill="#172036"/>
<circle cx="1112" cy="296" r="1.1" fill="#172036"/>
<circle cx="1112" cy="328" r="1.1" fill="#172036"/>
<circle cx="1112" cy="360" r="1.1" fill="#172036"/>
<circle cx="1144" cy="40" r="1.1" fill="#172036"/>
<circle cx="1144" cy="72" r="1.1" fill="#172036"/>
<circle cx="1144" cy="104" r="1.1" fill="#172036"/>
<circle cx="1144" cy="136" r="1.1" fill="#172036"/>
<circle cx="1144" cy="168" r="1.1" fill="#172036"/>
<circle cx="1144" cy="200" r="1.1" fill="#172036"/>
<circle cx="1144" cy="232" r="1.1" fill="#172036"/>
<circle cx="1144" cy="264" r="1.1" fill="#172036"/>
<circle cx="1144" cy="296" r="1.1" fill="#172036"/>
<circle cx="1144" cy="328" r="1.1" fill="#172036"/>
<circle cx="1144" cy="360" r="1.1" fill="#172036"/>
<circle cx="1176" cy="40" r="1.1" fill="#172036"/>
<circle cx="1176" cy="72" r="1.1" fill="#172036"/>
<circle cx="1176" cy="104" r="1.1" fill="#172036"/>
<circle cx="1176" cy="136" r="1.1" fill="#172036"/>
<circle cx="1176" cy="168" r="1.1" fill="#172036"/>
<circle cx="1176" cy="200" r="1.1" fill="#172036"/>
<circle cx="1176" cy="232" r="1.1" fill="#172036"/>
<circle cx="1176" cy="264" r="1.1" fill="#172036"/>
<circle cx="1176" cy="296" r="1.1" fill="#172036"/>
<circle cx="1176" cy="328" r="1.1" fill="#172036"/>
<circle cx="1176" cy="360" r="1.1" fill="#172036"/>
<circle cx="1208" cy="40" r="1.1" fill="#172036"/>
<circle cx="1208" cy="72" r="1.1" fill="#172036"/>
<circle cx="1208" cy="104" r="1.1" fill="#172036"/>
<circle cx="1208" cy="136" r="1.1" fill="#172036"/>
<circle cx="1208" cy="168" r="1.1" fill="#172036"/>
<circle cx="1208" cy="200" r="1.1" fill="#172036"/>
<circle cx="1208" cy="232" r="1.1" fill="#172036"/>
<circle cx="1208" cy="264" r="1.1" fill="#172036"/>
<circle cx="1208" cy="296" r="1.1" fill="#172036"/>
<circle cx="1208" cy="328" r="1.1" fill="#172036"/>
<circle cx="1208" cy="360" r="1.1" fill="#172036"/>
<circle cx="1240" cy="40" r="1.1" fill="#172036"/>
<circle cx="1240" cy="72" r="1.1" fill="#172036"/>
<circle cx="1240" cy="104" r="1.1" fill="#172036"/>
<circle cx="1240" cy="136" r="1.1" fill="#172036"/>
<circle cx="1240" cy="168" r="1.1" fill="#172036"/>
<circle cx="1240" cy="200" r="1.1" fill="#172036"/>
<circle cx="1240" cy="232" r="1.1" fill="#172036"/>
<circle cx="1240" cy="264" r="1.1" fill="#172036"/>
<circle cx="1240" cy="296" r="1.1" fill="#172036"/>
<circle cx="1240" cy="328" r="1.1" fill="#172036"/>
<circle cx="1240" cy="360" r="1.1" fill="#172036"/>
<circle cx="1272" cy="40" r="1.1" fill="#172036"/>
<circle cx="1272" cy="72" r="1.1" fill="#172036"/>
<circle cx="1272" cy="104" r="1.1" fill="#172036"/>
<circle cx="1272" cy="136" r="1.1" fill="#172036"/>
<circle cx="1272" cy="168" r="1.1" fill="#172036"/>
<circle cx="1272" cy="200" r="1.1" fill="#172036"/>
<circle cx="1272" cy="232" r="1.1" fill="#172036"/>
<circle cx="1272" cy="264" r="1.1" fill="#172036"/>
<circle cx="1272" cy="296" r="1.1" fill="#172036"/>
<circle cx="1272" cy="328" r="1.1" fill="#172036"/>
<circle cx="1272" cy="360" r="1.1" fill="#172036"/>
<circle cx="1304" cy="40" r="1.1" fill="#172036"/>
<circle cx="1304" cy="72" r="1.1" fill="#172036"/>
<circle cx="1304" cy="104" r="1.1" fill="#172036"/>
<circle cx="1304" cy="136" r="1.1" fill="#172036"/>
<circle cx="1304" cy="168" r="1.1" fill="#172036"/>
<circle cx="1304" cy="200" r="1.1" fill="#172036"/>
<circle cx="1304" cy="232" r="1.1" fill="#172036"/>
<circle cx="1304" cy="264" r="1.1" fill="#172036"/>
<circle cx="1304" cy="296" r="1.1" fill="#172036"/>
<circle cx="1304" cy="328" r="1.1" fill="#172036"/>
<circle cx="1304" cy="360" r="1.1" fill="#172036"/>
<circle cx="1336" cy="40" r="1.1" fill="#172036"/>
<circle cx="1336" cy="72" r="1.1" fill="#172036"/>
<circle cx="1336" cy="104" r="1.1" fill="#172036"/>
<circle cx="1336" cy="136" r="1.1" fill="#172036"/>
<circle cx="1336" cy="168" r="1.1" fill="#172036"/>
<circle cx="1336" cy="200" r="1.1" fill="#172036"/>
<circle cx="1336" cy="232" r="1.1" fill="#172036"/>
<circle cx="1336" cy="264" r="1.1" fill="#172036"/>
<circle cx="1336" cy="296" r="1.1" fill="#172036"/>
<circle cx="1336" cy="328" r="1.1" fill="#172036"/>
<circle cx="1336" cy="360" r="1.1" fill="#172036"/>
<circle cx="1368" cy="40" r="1.1" fill="#172036"/>
<circle cx="1368" cy="72" r="1.1" fill="#172036"/>
<circle cx="1368" cy="104" r="1.1" fill="#172036"/>
<circle cx="1368" cy="136" r="1.1" fill="#172036"/>
<circle cx="1368" cy="168" r="1.1" fill="#172036"/>
<circle cx="1368" cy="200" r="1.1" fill="#172036"/>
<circle cx="1368" cy="232" r="1.1" fill="#172036"/>
<circle cx="1368" cy="264" r="1.1" fill="#172036"/>
<circle cx="1368" cy="296" r="1.1" fill="#172036"/>
<circle cx="1368" cy="328" r="1.1" fill="#172036"/>
<circle cx="1368" cy="360" r="1.1" fill="#172036"/>
<circle cx="1400" cy="40" r="1.1" fill="#172036"/>
<circle cx="1400" cy="72" r="1.1" fill="#172036"/>
<circle cx="1400" cy="104" r="1.1" fill="#172036"/>
<circle cx="1400" cy="136" r="1.1" fill="#172036"/>
<circle cx="1400" cy="168" r="1.1" fill="#172036"/>
<circle cx="1400" cy="200" r="1.1" fill="#172036"/>
<circle cx="1400" cy="232" r="1.1" fill="#172036"/>
<circle cx="1400" cy="264" r="1.1" fill="#172036"/>
<circle cx="1400" cy="296" r="1.1" fill="#172036"/>
<circle cx="1400" cy="328" r="1.1" fill="#172036"/>
<circle cx="1400" cy="360" r="1.1" fill="#172036"/>
<circle cx="1432" cy="40" r="1.1" fill="#172036"/>
<circle cx="1432" cy="72" r="1.1" fill="#172036"/>
<circle cx="1432" cy="104" r="1.1" fill="#172036"/>
<circle cx="1432" cy="136" r="1.1" fill="#172036"/>
<circle cx="1432" cy="168" r="1.1" fill="#172036"/>
<circle cx="1432" cy="200" r="1.1" fill="#172036"/>
<circle cx="1432" cy="232" r="1.1" fill="#172036"/>
<circle cx="1432" cy="264" r="1.1" fill="#172036"/>
<circle cx="1432" cy="296" r="1.1" fill="#172036"/>
<circle cx="1432" cy="328" r="1.1" fill="#172036"/>
<circle cx="1432" cy="360" r="1.1" fill="#172036"/>
<circle cx="1464" cy="40" r="1.1" fill="#172036"/>
<circle cx="1464" cy="72" r="1.1" fill="#172036"/>
<circle cx="1464" cy="104" r="1.1" fill="#172036"/>
<circle cx="1464" cy="136" r="1.1" fill="#172036"/>
<circle cx="1464" cy="168" r="1.1" fill="#172036"/>
<circle cx="1464" cy="200" r="1.1" fill="#172036"/>
<circle cx="1464" cy="232" r="1.1" fill="#172036"/>
<circle cx="1464" cy="264" r="1.1" fill="#172036"/>
<circle cx="1464" cy="296" r="1.1" fill="#172036"/>
<circle cx="1464" cy="328" r="1.1" fill="#172036"/>
<circle cx="1464" cy="360" r="1.1" fill="#172036"/>
<circle cx="1496" cy="40" r="1.1" fill="#172036"/>
<circle cx="1496" cy="72" r="1.1" fill="#172036"/>
<circle cx="1496" cy="104" r="1.1" fill="#172036"/>
<circle cx="1496" cy="136" r="1.1" fill="#172036"/>
<circle cx="1496" cy="168" r="1.1" fill="#172036"/>
<circle cx="1496" cy="200" r="1.1" fill="#172036"/>
<circle cx="1496" cy="232" r="1.1" fill="#172036"/>
<circle cx="1496" cy="264" r="1.1" fill="#172036"/>
<circle cx="1496" cy="296" r="1.1" fill="#172036"/>
<circle cx="1496" cy="328" r="1.1" fill="#172036"/>
<circle cx="1496" cy="360" r="1.1" fill="#172036"/>
<circle cx="1528" cy="40" r="1.1" fill="#172036"/>
<circle cx="1528" cy="72" r="1.1" fill="#172036"/>
<circle cx="1528" cy="104" r="1.1" fill="#172036"/>
<circle cx="1528" cy="136" r="1.1" fill="#172036"/>
<circle cx="1528" cy="168" r="1.1" fill="#172036"/>
<circle cx="1528" cy="200" r="1.1" fill="#172036"/>
<circle cx="1528" cy="232" r="1.1" fill="#172036"/>
<circle cx="1528" cy="264" r="1.1" fill="#172036"/>
<circle cx="1528" cy="296" r="1.1" fill="#172036"/>
<circle cx="1528" cy="328" r="1.1" fill="#172036"/>
<circle cx="1528" cy="360" r="1.1" fill="#172036"/>
<circle cx="1560" cy="40" r="1.1" fill="#172036"/>
<circle cx="1560" cy="72" r="1.1" fill="#172036"/>
<circle cx="1560" cy="104" r="1.1" fill="#172036"/>
<circle cx="1560" cy="136" r="1.1" fill="#172036"/>
<circle cx="1560" cy="168" r="1.1" fill="#172036"/>
<circle cx="1560" cy="200" r="1.1" fill="#172036"/>
<circle cx="1560" cy="232" r="1.1" fill="#172036"/>
<circle cx="1560" cy="264" r="1.1" fill="#172036"/>
<circle cx="1560" cy="296" r="1.1" fill="#172036"/>
<circle cx="1560" cy="328" r="1.1" fill="#172036"/>
<circle cx="1560" cy="360" r="1.1" fill="#172036"/></g>
<circle cx="1380" cy="210" r="260" fill="#0A84FF" opacity="0.08"/>
<circle cx="1500" cy="110" r="90" fill="#0A84FF" opacity="0.12"/>
<rect x="84.00" y="104.00" width="72" height="72" rx="18.00" ry="18.00" fill="#0A84FF"/><path d="M 129.00,113.00 L 99.75,142.25 L 114.38,142.25 L 111.00,167.00 L 140.25,137.75 L 125.62,137.75 Z" fill="#FFFFFF"/>
<text x="180" y="162" font-family="Inter, Segoe UI, Arial, sans-serif" font-size="64" font-weight="800" fill="#E2E8F0">TaskTrail</text>
<text x="180" y="204" font-family="Inter, Segoe UI, Arial, sans-serif" font-size="22" font-weight="500" fill="#94A3B8">A cloud-deployed task coordination platform for teams.</text>
<g><rect x="180" y="250" width="170" height="30" rx="15.0" ry="15.0" fill="#0C1A30" stroke="#0A84FF" stroke-width="1"/><text x="265.0" y="269.68" text-anchor="middle" font-family="Inter, Segoe UI, Arial, sans-serif" font-size="13" font-weight="600" fill="#E2E8F0">Node.js + Express 5</text></g>
<g><rect x="360" y="250" width="155" height="30" rx="15.0" ry="15.0" fill="#0C1A30" stroke="#0A84FF" stroke-width="1"/><text x="437.5" y="269.68" text-anchor="middle" font-family="Inter, Segoe UI, Arial, sans-serif" font-size="13" font-weight="600" fill="#E2E8F0">Supabase Postgres</text></g>
<g><rect x="525" y="250" width="126" height="30" rx="15.0" ry="15.0" fill="#0C1A30" stroke="#0A84FF" stroke-width="1"/><text x="588.0" y="269.68" text-anchor="middle" font-family="Inter, Segoe UI, Arial, sans-serif" font-size="13" font-weight="600" fill="#E2E8F0">Docker on OCI</text></g>
<g><rect x="661" y="250" width="104" height="30" rx="15.0" ry="15.0" fill="#0C1A30" stroke="#0A84FF" stroke-width="1"/><text x="713.0" y="269.68" text-anchor="middle" font-family="Inter, Segoe UI, Arial, sans-serif" font-size="13" font-weight="600" fill="#E2E8F0">Vercel SPA</text></g>
<g><rect x="775" y="250" width="177" height="30" rx="15.0" ry="15.0" fill="#0C1A30" stroke="#0A84FF" stroke-width="1"/><text x="863.5" y="269.68" text-anchor="middle" font-family="Inter, Segoe UI, Arial, sans-serif" font-size="13" font-weight="600" fill="#E2E8F0">GitHub Actions CI/CD</text></g>
<rect x="0" y="374" width="1600" height="46" fill="#111B2E"/>
<rect x="0" y="374" width="1600" height="1" fill="#1E2A44"/>
<circle cx="36" cy="398" r="5" fill="#0A84FF"/>
<text x="50" y="402" font-family="Inter, Segoe UI, Arial, sans-serif" font-size="11" font-weight="800" fill="#64748B" letter-spacing="1.6">LIVE WEB</text>
<text x="146" y="402" font-family="Inter, Segoe UI, Arial, sans-serif" font-size="14" font-weight="600" fill="#E2E8F0">tasktrail.site</text>
<circle cx="306" cy="398" r="5" fill="#0A84FF"/>
<text x="320" y="402" font-family="Inter, Segoe UI, Arial, sans-serif" font-size="11" font-weight="800" fill="#64748B" letter-spacing="1.6">LIVE API</text>
<text x="416" y="402" font-family="Inter, Segoe UI, Arial, sans-serif" font-size="14" font-weight="600" fill="#E2E8F0">api.tasktrail.site</text>
<circle cx="608" cy="398" r="5" fill="#0A84FF"/>
<text x="622" y="402" font-family="Inter, Segoe UI, Arial, sans-serif" font-size="11" font-weight="800" fill="#64748B" letter-spacing="1.6">AUTH</text>
<text x="718" y="402" font-family="Inter, Segoe UI, Arial, sans-serif" font-size="14" font-weight="600" fill="#E2E8F0">Supabase + Resend</text>
<circle cx="902" cy="398" r="5" fill="#0A84FF"/>
<text x="916" y="402" font-family="Inter, Segoe UI, Arial, sans-serif" font-size="11" font-weight="800" fill="#64748B" letter-spacing="1.6">HOSTING</text>
<text x="1012" y="402" font-family="Inter, Segoe UI, Arial, sans-serif" font-size="14" font-weight="600" fill="#E2E8F0">Vercel + OCI · Docker</text>
</svg>